<svg width="24" height="24" viewBox="0 0 24 24" fill="none" xmlns="http://www.w3.org/2000/svg">
<g clip-path="url(#clip0_2503_15463)">
<mask id="path-1-outside-1_2503_15463" maskUnits="userSpaceOnUse" x="2" y="-1" width="20" height="26" fill="black">
<rect fill="white" x="2" y="-1" width="20" height="26"/>
<path fill-rule="evenodd" clip-rule="evenodd" d="M3.89349 0H18.2103C18.5666 0.0110811 18.9039 0.163507 19.1481 0.42378C19.3924 0.684052 19.5235 1.03087 19.5127 1.38802V9.8387C19.5235 10.1961 19.3924 10.5432 19.1483 10.8038C18.9041 11.0644 18.5668 11.2174 18.2103 11.2291H3.00016V0.94263C2.9957 0.699381 3.08691 0.464145 3.25407 0.287759C3.42123 0.111374 3.65092 0.00800679 3.89349 0ZM14.9786 7.77699C15.007 7.70169 15.0204 7.62151 15.0179 7.54104L15.0249 3.68804C15.0293 3.52592 14.9695 3.36865 14.8584 3.25071C14.7474 3.13276 14.5942 3.06376 14.4325 3.05883H7.50209V8.1726H14.4254C14.5057 8.17016 14.5847 8.15189 14.658 8.11882C14.7312 8.08576 14.7972 8.03855 14.8522 7.97989C14.9072 7.92124 14.9502 7.85229 14.9786 7.77699ZM21.7151 22.8614V13.912H21.7104C21.7107 13.7619 21.6812 13.6131 21.6235 13.4744C21.5658 13.3356 21.4811 13.2096 21.3742 13.1037C21.2674 12.9977 21.1406 12.9138 21.001 12.8569C20.8615 12.8 20.712 12.7712 20.5613 12.7722H3V24.0012H20.566C20.7166 24.0015 20.8658 23.9723 21.005 23.9152C21.1443 23.8581 21.2709 23.7742 21.3776 23.6683C21.4843 23.5625 21.569 23.4367 21.6269 23.2983C21.6849 23.1598 21.7148 23.0114 21.7151 22.8614Z"/>
</mask>
<path fill-rule="evenodd" clip-rule="evenodd" d="M3.89349 0H18.2103C18.5666 0.0110811 18.9039 0.163507 19.1481 0.42378C19.3924 0.684052 19.5235 1.03087 19.5127 1.38802V9.8387C19.5235 10.1961 19.3924 10.5432 19.1483 10.8038C18.9041 11.0644 18.5668 11.2174 18.2103 11.2291H3.00016V0.94263C2.9957 0.699381 3.08691 0.464145 3.25407 0.287759C3.42123 0.111374 3.65092 0.00800679 3.89349 0ZM14.9786 7.77699C15.007 7.70169 15.0204 7.62151 15.0179 7.54104L15.0249 3.68804C15.0293 3.52592 14.9695 3.36865 14.8584 3.25071C14.7474 3.13276 14.5942 3.06376 14.4325 3.05883H7.50209V8.1726H14.4254C14.5057 8.17016 14.5847 8.15189 14.658 8.11882C14.7312 8.08576 14.7972 8.03855 14.8522 7.97989C14.9072 7.92124 14.9502 7.85229 14.9786 7.77699ZM21.7151 22.8614V13.912H21.7104C21.7107 13.7619 21.6812 13.6131 21.6235 13.4744C21.5658 13.3356 21.4811 13.2096 21.3742 13.1037C21.2674 12.9977 21.1406 12.9138 21.001 12.8569C20.8615 12.8 20.712 12.7712 20.5613 12.7722H3V24.0012H20.566C20.7166 24.0015 20.8658 23.9723 21.005 23.9152C21.1443 23.8581 21.2709 23.7742 21.3776 23.6683C21.4843 23.5625 21.569 23.4367 21.6269 23.2983C21.6849 23.1598 21.7148 23.0114 21.7151 22.8614Z" fill="url(#paint0_radial_2503_15463)"/>
<path d="M18.2103 0L18.2117 -0.0439016H18.2103V0ZM3.89349 0V-0.0439255L3.89204 -0.0438777L3.89349 0ZM19.1481 0.42378L19.1161 0.453819L19.1161 0.453819L19.1481 0.42378ZM19.5127 1.38802L19.4688 1.3867V1.38802H19.5127ZM19.5127 9.8387H19.4688L19.4689 9.84002L19.5127 9.8387ZM18.2103 11.2291V11.273L18.2118 11.273L18.2103 11.2291ZM3.00016 11.2291H2.95625V11.273H3.00016V11.2291ZM3.00016 0.94263H3.04406L3.04405 0.941826L3.00016 0.94263ZM3.25407 0.287759L3.22221 0.257561L3.22221 0.257561L3.25407 0.287759ZM15.0179 7.54104L14.9739 7.54096L14.974 7.54241L15.0179 7.54104ZM15.0249 3.68804L14.981 3.68684L14.981 3.68796L15.0249 3.68804ZM14.4325 3.05883L14.4338 3.01493H14.4325V3.05883ZM7.50209 3.05883V3.01493H7.45819V3.05883H7.50209ZM7.50209 8.1726H7.45819V8.2165H7.50209V8.1726ZM14.4254 8.1726V8.21652L14.4268 8.21648L14.4254 8.1726ZM14.8522 7.97989L14.8202 7.94986L14.8202 7.94986L14.8522 7.97989ZM21.7151 13.912H21.759V13.8681H21.7151V13.912ZM21.7151 22.8614L21.759 22.8614V22.8614H21.7151ZM21.7104 13.912L21.6665 13.9119L21.6664 13.9559H21.7104V13.912ZM21.3742 13.1037L21.4052 13.0725L21.4052 13.0725L21.3742 13.1037ZM21.001 12.8569L21.0176 12.8163L21.0176 12.8163L21.001 12.8569ZM20.5613 12.7722V12.8161L20.5615 12.8161L20.5613 12.7722ZM3 12.7722V12.7283H2.9561V12.7722H3ZM3 24.0012H2.9561V24.0451H3V24.0012ZM20.566 24.0012L20.5661 23.9573H20.566V24.0012ZM21.3776 23.6683L21.4085 23.6995L21.4085 23.6995L21.3776 23.6683ZM21.6269 23.2983L21.5864 23.2813L21.5864 23.2813L21.6269 23.2983ZM18.2103 -0.0439016H3.89349V0.0439016H18.2103V-0.0439016ZM19.1802 0.39374C18.928 0.124981 18.5797 -0.0324365 18.2117 -0.0438804L18.209 0.0438804C18.5536 0.0545986 18.8799 0.202034 19.1161 0.453819L19.1802 0.39374ZM19.5566 1.38934C19.5677 1.0206 19.4323 0.662495 19.1802 0.39374L19.1161 0.453819C19.3524 0.705609 19.4793 1.04115 19.4689 1.3867L19.5566 1.38934ZM19.5566 9.8387V1.38802H19.4688V9.8387H19.5566ZM19.1803 10.8338C19.4324 10.5647 19.5677 10.2063 19.5566 9.83737L19.4689 9.84002C19.4793 10.1858 19.3525 10.5216 19.1163 10.7738L19.1803 10.8338ZM18.2118 11.273C18.5799 11.2609 18.9282 11.1029 19.1803 10.8338L19.1163 10.7738C18.88 11.0259 18.5537 11.1739 18.2089 11.1852L18.2118 11.273ZM3.00016 11.273H18.2103V11.1852H3.00016V11.273ZM2.95625 0.94263V11.2291H3.04406V0.94263H2.95625ZM3.22221 0.257561C3.04712 0.442314 2.9516 0.688687 2.95626 0.943433L3.04405 0.941826C3.03981 0.710074 3.12671 0.485976 3.28594 0.317958L3.22221 0.257561ZM3.89204 -0.0438777C3.63791 -0.0354893 3.3973 0.0728044 3.22221 0.257561L3.28594 0.317958C3.44517 0.149944 3.66393 0.0515029 3.89494 0.0438777L3.89204 -0.0438777ZM14.974 7.54241C14.9763 7.61713 14.9639 7.69157 14.9375 7.76149L15.0197 7.79249C15.0501 7.7118 15.0644 7.62589 15.0617 7.53967L14.974 7.54241ZM14.981 3.68796L14.974 7.54096L15.0618 7.54112L15.0688 3.68812L14.981 3.68796ZM14.8265 3.2808C14.9295 3.39029 14.9851 3.5363 14.981 3.68684L15.0688 3.68924C15.0735 3.51554 15.0094 3.34701 14.8904 3.22061L14.8265 3.2808ZM14.4311 3.10272C14.5812 3.10729 14.7234 3.17132 14.8265 3.2808L14.8904 3.22061C14.7714 3.09421 14.6072 3.02024 14.4338 3.01495L14.4311 3.10272ZM7.50209 3.10274H14.4325V3.01493H7.50209V3.10274ZM7.54599 8.1726V3.05883H7.45819V8.1726H7.54599ZM14.4254 8.1287H7.50209V8.2165H14.4254V8.1287ZM14.6399 8.07881C14.5719 8.1095 14.4986 8.12646 14.4241 8.12872L14.4268 8.21648C14.5128 8.21387 14.5975 8.19428 14.676 8.15883L14.6399 8.07881ZM14.8202 7.94986C14.7691 8.0043 14.7078 8.04812 14.6399 8.07881L14.676 8.15883C14.7545 8.12339 14.8253 8.07279 14.8842 8.00993L14.8202 7.94986ZM14.9375 7.76149C14.9111 7.8314 14.8713 7.89541 14.8202 7.94986L14.8842 8.00993C14.9432 7.94707 14.9892 7.87318 15.0197 7.79249L14.9375 7.76149ZM21.6712 13.912V22.8614H21.759V13.912H21.6712ZM21.7104 13.9559H21.7151V13.8681H21.7104V13.9559ZM21.5829 13.4912C21.6384 13.6246 21.6668 13.7676 21.6665 13.9119L21.7543 13.9121C21.7546 13.7561 21.7239 13.6016 21.664 13.4575L21.5829 13.4912ZM21.3433 13.1348C21.446 13.2367 21.5275 13.3578 21.5829 13.4912L21.664 13.4575C21.6041 13.3134 21.5161 13.1825 21.4052 13.0725L21.3433 13.1348ZM20.9845 12.8976C21.1186 12.9523 21.2406 13.0329 21.3433 13.1348L21.4052 13.0725C21.2942 12.9624 21.1625 12.8754 21.0176 12.8163L20.9845 12.8976ZM20.5615 12.8161C20.7065 12.8152 20.8503 12.8429 20.9845 12.8976L21.0176 12.8163C20.8727 12.7572 20.7175 12.7273 20.561 12.7283L20.5615 12.8161ZM3 12.8161H20.5613V12.7283H3V12.8161ZM3.0439 24.0012V12.7722H2.9561V24.0012H3.0439ZM20.566 23.9573H3V24.0451H20.566V23.9573ZM20.9884 23.8746C20.8544 23.9295 20.7109 23.9576 20.5661 23.9573L20.5659 24.0451C20.7222 24.0454 20.8771 24.0151 21.0217 23.9558L20.9884 23.8746ZM21.3467 23.6372C21.244 23.739 21.1223 23.8196 20.9884 23.8746L21.0217 23.9558C21.1662 23.8965 21.2977 23.8094 21.4085 23.6995L21.3467 23.6372ZM21.5864 23.2813C21.5307 23.4145 21.4493 23.5354 21.3467 23.6372L21.4085 23.6995C21.5193 23.5896 21.6073 23.459 21.6674 23.3152L21.5864 23.2813ZM21.6712 22.8613C21.6709 23.0055 21.6421 23.1482 21.5864 23.2813L21.6674 23.3152C21.7276 23.1714 21.7587 23.0172 21.759 22.8614L21.6712 22.8613Z" fill="#E51E2A" mask="url(#path-1-outside-1_2503_15463)"/>
</g>
<defs>
<radialGradient id="paint0_radial_2503_15463" cx="0" cy="0" r="1" gradientUnits="userSpaceOnUse" gradientTransform="translate(12.3044 -3.74557) rotate(90) scale(31.8394 24.827)">
<stop stop-color="#EA13F2" stop-opacity="0.75"/>
<stop offset="0.536" stop-color="#E6213A"/>
<stop offset="1" stop-color="#EA13F2" stop-opacity="0.75"/>
</radialGradient>
<clipPath id="clip0_2503_15463">
<rect width="24" height="24" fill="white"/>
</clipPath>
</defs>
</svg>
