<svg width="94" height="94" viewBox="0 0 94 94" fill="none" xmlns="http://www.w3.org/2000/svg">
<path fill-rule="evenodd" clip-rule="evenodd" d="M19.5629 9.33594H63.8534C64.9556 9.37022 65.9991 9.84176 66.7546 10.6469C67.5101 11.4521 67.9158 12.525 67.8825 13.6299V39.7729C67.9158 40.8784 67.5104 41.9521 66.7551 42.7585C65.9998 43.5648 64.9563 44.038 63.8534 44.0741H16.7993V12.252C16.7855 11.4995 17.0677 10.7718 17.5848 10.2261C18.102 9.68048 18.8125 9.36071 19.5629 9.33594ZM53.8557 33.3948C53.9437 33.1618 53.9849 32.9138 53.9772 32.6648L53.999 20.7452C54.0127 20.2437 53.8275 19.7572 53.4839 19.3923C53.1404 19.0274 52.6665 18.814 52.1663 18.7987H30.7265V34.6186H52.1445C52.3928 34.6111 52.6372 34.5546 52.8638 34.4523C53.0903 34.35 53.2945 34.2039 53.4647 34.0225C53.6349 33.841 53.7678 33.6277 53.8557 33.3948Z" fill="white"/>
<path d="M74.6958 80.0463V52.3608H74.6812C74.6822 51.8962 74.5908 51.436 74.4123 51.0068C74.2338 50.5776 73.9717 50.1878 73.6412 49.86C73.3107 49.5322 72.9183 49.2728 72.4867 49.0967C72.055 48.9207 71.5926 48.8316 71.1262 48.8345H16.7988V83.5726H71.1408C71.6067 83.5736 72.0682 83.4831 72.499 83.3064C72.9298 83.1297 73.3214 82.8703 73.6516 82.5428C73.9817 82.2154 74.2438 81.8264 74.423 81.398C74.6021 80.9697 74.6949 80.5104 74.6958 80.0463Z" fill="white"/>
</svg>
