<svg version="1.0" xmlns="http://www.w3.org/2000/svg" viewBox="0 0 225 225"><path d="M97.5 1.1C74.6 4 52.7 14.6 35.4 31.2 24.4 41.8 18.2 50.1 12 62.5-5.7 98.3-3.3 140.4 18.4 174c6.4 9.9 21.4 25.1 31.2 31.6C89.3 232 141.3 231 178.9 203c56.7-42.3 61.7-123.4 10.5-172C164.6 7.4 132-3.2 97.5 1.1zm46.7 42.1.3 5.3 4 .3c2.2.1 5.5.5 7.3.8l3.2.5v6.6c0 5.8-.2 6.4-1.7 5.8-4.5-1.9-16.4-3.6-22.2-3.2-7.6.6-11.5 3-11.9 7.4-.3 2.6.2 3.3 3.2 4.7 1.9.9 7.3 2.3 12 3.1C158 77.9 168 85.1 168 95.6c0 8.7-7 16.6-17.6 19.7l-4.9 1.4.3 4.7.4 4.6H133v-5c0-4.7-.1-5-2.6-5-1.5 0-6.6-.9-11.5-2.1l-8.9-2.1v-6.4c0-3.5.3-6.4.8-6.4.4 0 5 1.2 10.1 2.5 16.2 4.3 30.8 3.1 32.6-2.5 1.8-5.7-4.2-9.5-17.7-11-4.6-.6-9.8-1.4-11.6-1.9C115.1 83.4 109 76 109 67.6c0-9.7 5.9-15.9 17.5-18.5l5.7-1.3-.6-4.9-.7-4.9h13l.3 5.2zM91 74.8v7.7l-3.5 1.9c-4.6 2.5-12.7 11.1-15.4 16.4-15.2 29.8 6.9 63.8 40.3 62 6.5-.3 9.6-1.1 14.9-3.5 7.4-3.5 15.3-10.4 18.3-15.8l1.9-3.5h16.4l-1.6 3.7c-4.6 11-15.7 22.8-26.8 28.1-26.2 12.8-56.8 5.1-72.9-18.5-15.9-23.3-13.2-53 6.7-72.8C75.8 74 86.2 67.2 89.8 67c.8 0 1.2 2.2 1.2 7.8z"/></svg>