<?xml version="1.0" encoding="UTF-8" standalone="no"?>
<!DOCTYPE svg PUBLIC "-//W3C//DTD SVG 1.1//EN" "http://www.w3.org/Graphics/SVG/1.1/DTD/svg11.dtd">
<svg width="100%" height="100%" viewBox="0 0 600 450" version="1.1" xmlns="http://www.w3.org/2000/svg" xmlns:xlink="http://www.w3.org/1999/xlink" xml:space="preserve" xmlns:serif="http://www.serif.com/" style="fill-rule:evenodd;clip-rule:evenodd;stroke-linejoin:round;stroke-miterlimit:2;">
    <path d="M171.6,180L182.5,173.1L182.5,173C183.3,167.5 185.4,162.3 188.5,157.8C191.6,153.2 195.7,149.5 200.5,146.7L281.8,99.9C287.4,96.7 293.8,95 300.3,95C306.8,95 313.1,96.7 318.8,99.9C326.2,102.7 332.6,107.7 337.2,114.1C341.8,120.5 344.4,128.2 344.7,136.1L344.7,267.9L374.2,285L374.2,136C374,122.8 370,110 362.7,99C355.4,88 345.2,79.3 333.1,74L333.1,74.1C323,68.4 311.6,65.4 300.1,65.5C288.5,65.5 277.2,68.6 267.1,74.3L185.8,121.1C175.7,126.9 167.3,135.3 161.5,145.4C155.7,155.5 152.6,166.9 152.6,178.6L152.6,194.4L152.7,194.3C158.3,188.7 164.7,183.9 171.6,180ZM326.1,359.5L314.9,352.9C309.6,355.2 303.9,356.2 298.1,355.9C292.4,355.6 286.8,353.9 281.8,351L200.5,304.2C194.5,300.7 189.6,295.6 186.3,289.4C183,283.2 181.6,276.3 182,269.3C181.1,261.9 182.4,254.4 185.7,247.7C189,241 194.2,235.4 200.6,231.6L314.9,166L314.9,131.7L186,205.9C180.2,209 175.1,213.1 170.8,218C164.6,224.4 159.8,232 156.7,240.4C153.6,248.7 152.1,257.6 152.5,266.5C151.6,279.1 154.2,291.7 160.1,302.9C166,314.1 174.9,323.4 185.8,329.8L267.1,376.6C277.2,382.4 288.7,385.5 300.3,385.5C311.9,385.5 323.4,382.4 333.5,376.6L347.4,368.6C347.3,368.5 347.3,368.5 347.1,368.5C339.7,366.4 332.7,363.4 326.1,359.5ZM439.1,145.3C433.3,135.2 424.9,126.8 414.8,121L400.8,112.9C400.8,113 400.9,113.3 400.9,113.5C402.8,120.8 403.7,128.4 403.7,136L403.7,149.1C408.3,152.5 412,157 414.6,162.1C417.2,167.2 418.5,172.8 418.5,178.5L418.5,272.2C418.5,278.6 416.8,285 413.6,290.5C410.4,296.1 405.8,300.7 400.2,303.9C394.1,308.9 386.6,312 378.7,312.8C370.8,313.6 362.9,312 355.9,308.3L241.1,242.3L211.4,259.4L341,334C352.8,340.5 366.3,343.5 379.8,342.5C393.3,341.5 406.2,336.5 416.9,328.3C426.4,322.3 434.2,314.1 439.6,304.3C445,294.5 447.9,283.5 447.9,272.3L447.9,178.6C448,166.9 444.9,155.4 439.1,145.3Z" style="fill-rule:nonzero;"/>
</svg>
