<?xml version="1.0" encoding="UTF-8" standalone="no"?>
<!DOCTYPE svg PUBLIC "-//W3C//DTD SVG 1.1//EN" "http://www.w3.org/Graphics/SVG/1.1/DTD/svg11.dtd">
<svg width="100%" height="100%" viewBox="0 0 24 24" version="1.1" xmlns="http://www.w3.org/2000/svg" xmlns:xlink="http://www.w3.org/1999/xlink" xml:space="preserve" xmlns:serif="http://www.serif.com/" style="fill-rule:evenodd;clip-rule:evenodd;stroke-linecap:round;stroke-linejoin:round;">
    <path d="M3,22L15,22" style="fill:none;fill-rule:nonzero;stroke:white;stroke-width:2px;"/>
    <path d="M4,9L14,9" style="fill:none;fill-rule:nonzero;stroke:white;stroke-width:2px;"/>
    <path d="M14,22L14,4C14,2.903 13.097,2 12,2L6,2C4.903,2 4,2.903 4,4L4,22" style="fill:none;fill-rule:nonzero;stroke:white;stroke-width:2px;"/>
    <path d="M14,13L16,13C17.097,13 18,13.903 18,15L18,17C18,18.097 18.903,19 20,19C21.097,19 22,18.097 22,17L22,9.83C22,9.297 21.788,8.786 21.41,8.41L18,5" style="fill:none;fill-rule:nonzero;stroke:white;stroke-width:2px;"/>
</svg>
