<svg width="21" height="21" viewBox="0 0 21 21" fill="none" xmlns="http://www.w3.org/2000/svg">
<g id="btn" clip-path="url(#clip0_2822_15627)">
<path id="Vector" d="M10.5 4.45833C11.975 4.45833 13.2958 4.96667 14.3375 5.95833L17.1917 3.10417C15.4583 1.49167 13.1958 0.5 10.5 0.5C6.59165 0.5 3.21248 2.74167 1.56665 6.00833L4.89165 8.5875C5.67915 6.21667 7.89165 4.45833 10.5 4.45833Z" fill="#EA4335"/>
<path id="Vector_2" d="M20.075 10.7279C20.075 10.0737 20.0125 9.44036 19.9167 8.83203H10.5V12.5904H15.8917C15.65 13.8237 14.95 14.8737 13.9 15.582L17.1208 18.082C19 16.3404 20.075 13.7654 20.075 10.7279Z" fill="#4285F4"/>
<path id="Vector_3" d="M4.8875 12.412C4.6875 11.8078 4.57083 11.1661 4.57083 10.4995C4.57083 9.83281 4.68333 9.19115 4.8875 8.58698L1.5625 6.00781C0.883333 7.35781 0.5 8.88281 0.5 10.4995C0.5 12.1161 0.883333 13.6411 1.56667 14.9911L4.8875 12.412Z" fill="#FBBC05"/>
<path id="Vector_4" d="M10.5 20.5018C13.2 20.5018 15.4708 19.6143 17.1208 18.081L13.9 15.581C13.0042 16.1852 11.85 16.5393 10.5 16.5393C7.89167 16.5393 5.67917 14.781 4.8875 12.4102L1.5625 14.9893C3.2125 18.2602 6.59167 20.5018 10.5 20.5018Z" fill="#34A853"/>
</g>
<defs>
<clipPath id="clip0_2822_15627">
<rect width="20" height="20" fill="white" transform="translate(0.5 0.5)"/>
</clipPath>
</defs>
</svg>
